<svg xmlns="http://www.w3.org/2000/svg" width="600" height="450" viewBox="0 0 600 450">
  <defs>
    <linearGradient id="g" x1="0" y1="0" x2="1" y2="1">
      <stop offset="0%" stop-color="#5b8def"/>
      <stop offset="100%" stop-color="#8f6bff"/>
    </linearGradient>
  </defs>
  <rect width="600" height="450" fill="url(#g)"/>
  <g fill="#ffffff" opacity="0.9">
    <rect x="80" y="180" width="440" height="120" rx="14" fill="#ffffff" opacity="0.15"/>
    <g fill="#ffffff" opacity="0.85">
      <rect x="100" y="200" width="32" height="32" rx="6"/>
      <rect x="140" y="200" width="32" height="32" rx="6"/>
      <rect x="180" y="200" width="32" height="32" rx="6"/>
      <rect x="220" y="200" width="32" height="32" rx="6"/>
      <rect x="260" y="200" width="32" height="32" rx="6"/>
      <rect x="300" y="200" width="32" height="32" rx="6"/>
      <rect x="340" y="200" width="32" height="32" rx="6"/>
      <rect x="380" y="200" width="32" height="32" rx="6"/>
      <rect x="420" y="200" width="32" height="32" rx="6"/>
      <rect x="460" y="200" width="32" height="32" rx="6"/>
      <rect x="100" y="240" width="150" height="32" rx="6"/>
      <rect x="260" y="240" width="200" height="32" rx="6"/>
    </g>
  </g>
  <text x="300" y="360" text-anchor="middle" font-family="Arial, sans-serif" font-size="30" fill="#ffffff" font-weight="700">Aurora TKL</text>
  <text x="300" y="390" text-anchor="middle" font-family="Arial, sans-serif" font-size="16" fill="#ffffff" opacity="0.8">Mechanical Keyboard</text>
</svg>
